<?xml version="1.0" encoding="utf-8"?>
<!-- Generator: Adobe Illustrator 22.0.1, SVG Export Plug-In . SVG Version: 6.00 Build 0)  -->
<svg version="1.1" id="Layer_1" xmlns="http://www.w3.org/2000/svg" xmlns:xlink="http://www.w3.org/1999/xlink" x="0px" y="0px"
	 viewBox="0 0 183 174" style="enable-background:new 0 0 183 174;" xml:space="preserve">
<style type="text/css">
	.st0{fill:#DDDDDD;}
	.st1{fill:#D89D12;}
	.st2{filter:url(#Adobe_OpacityMaskFilter);}
	.st3{fill:#FFFFFF;}
	.st4{mask:url(#mask-2_1_);fill:#DDDDDD;}
	.st5{filter:url(#Adobe_OpacityMaskFilter_1_);}
	.st6{mask:url(#mask-2_2_);fill:#DDDDDD;}
	.st7{filter:url(#Adobe_OpacityMaskFilter_2_);}
	.st8{mask:url(#mask-2_3_);fill:#DDDDDD;}
	.st9{filter:url(#Adobe_OpacityMaskFilter_3_);}
	.st10{mask:url(#mask-2_4_);fill:#DDDDDD;}
	.st11{filter:url(#Adobe_OpacityMaskFilter_4_);}
	.st12{mask:url(#mask-2_5_);fill:#DDDDDD;}
	.st13{filter:url(#Adobe_OpacityMaskFilter_5_);}
	.st14{mask:url(#mask-2_6_);fill:#DDDDDD;}
	.st15{filter:url(#Adobe_OpacityMaskFilter_6_);}
	.st16{mask:url(#mask-2_7_);fill:#DDDDDD;}
	.st17{filter:url(#Adobe_OpacityMaskFilter_7_);}
	.st18{mask:url(#mask-2_8_);fill:#DDDDDD;}
	.st19{filter:url(#Adobe_OpacityMaskFilter_8_);}
	.st20{mask:url(#mask-2_9_);fill:#DDDDDD;}
	.st21{filter:url(#Adobe_OpacityMaskFilter_9_);}
	.st22{mask:url(#mask-2_10_);fill:#DDDDDD;}
	.st23{filter:url(#Adobe_OpacityMaskFilter_10_);}
	.st24{mask:url(#mask-2_11_);fill:#DDDDDD;}
</style>
<title>Page 1</title>
<desc>Created with Sketch.</desc>
<path id="Fill-1" class="st0" d="M93.4,133.9v-3.3h-9.1v2.8H89l-4.8,6.7v3.3h9.3v-2.8h-4.9L93.4,133.9z M125.4,135.4
	c0.5-0.6,0.4-1.5-0.2-1.8c-0.2-0.1-0.4-0.2-1-0.2c-0.1,0-0.2,0-0.2,0h-1v2.4h1.3C124.9,135.8,125.2,135.6,125.4,135.4z M128.2,138.8
	c0.1,0.1,0.1,0.3,0.2,0.4l1.6,4.2h-3.5l-1.3-3.2l-0.1-0.2l-0.2-0.4c-0.3-0.7-0.6-0.9-1.2-0.9h-0.8v4.8h-3.4v-12.8h5.3
	c2.3,0,3.5,0.8,3.9,2.4c0.6,1.8-0.1,3.5-1.6,4.2c-0.1,0-0.1,0.1-0.2,0.1C127.6,137.4,127.7,137.6,128.2,138.8z M136.1,138.1h2.5
	l-1.2-4.1L136.1,138.1z M139.3,130.6l4.6,12.8h-3.6l-0.7-2.4h-4.3l-0.8,2.4H131l4.5-12.8H139.3z M74.3,138.1h2.5l-1.3-4.1
	L74.3,138.1z M73.7,130.6h3.7l4.6,12.8h-3.6l-0.7-2.4h-4.3l-0.8,2.4h-3.4L73.7,130.6z M43.4,138.1h2.5l-1.2-4.1L43.4,138.1z
	 M42.8,130.6h3.7l4.6,12.8h-3.6l-0.7-2.4h-4.3l-0.8,2.4h-3.4L42.8,130.6z M111.4,138.5h4.4v-2.7h-4.4v-2.3h5.1v-2.8H108v12.8h8.9
	v-2.7h-5.6V138.5z M99.7,138.5h4.4v-2.7h-4.4v-2.3h5.1v-2.8h-8.5v12.8h8.9v-2.7h-5.6V138.5z M63.8,142.6v-12h3.4v12.9
	c0,3.6-2.5,5.6-6.3,4.2c-0.2-0.1-0.4-0.1-0.6-0.2l0.8-2.8c0.1,0,0.2,0.1,0.3,0.1C63.1,145.3,63.8,144.6,63.8,142.6z M60.8,140.6v2.9
	h-7.6v-12.8h3.4v10H60.8z"/>
<path id="Fill-3" class="st1" d="M80.1,36.3c-1.8,0.1-3.2,1.6-3.2,3.4c0,1.8,1.6,3.2,3.4,3.2c1.8,0,3.2-1.6,3.2-3.4
	c-0.1-1.8-1.5-3.2-3.3-3.2H80.1z M92.6,7.2c-1.7,1.2-3.1,3.9-3.1,8c0,2.5,0.7,5.5,2.6,8.9c-2.6,3.6-3.1,6.8-2,10
	c0.8,2.4,1.3,3,1.6,4.4c1,3.6-0.1,8-2.9,14.7c-2.3,5.5-5.3,11.2-5.3,18.1c0,1.6,0.1,3.2,0.4,4.7c0.3-0.3,0.8-0.8,1.5-1.4
	c-0.3-5.5,1.8-10.9,4.5-15.9c3.9-7.2,4.3-14.5,3.6-18.5c2.7,2.9,7.3,7.3,9.9,11.7c0.9,1.5,1.4,2.9,1.6,4.4c0.1,3.5-1,6.1-3.1,8.5
	c-1.8,2.1-1.2,3.9-1.1,4.3c0.1,0.6,0.9,2.9,1.4,4.4c2-4,7.6-6.2,10.1-9.5c0.6,4.1-2.5,7.9-4.7,10.5c-0.5,0.6-1.1,1.2-1.8,1.8
	c-4.3,4.1-7.1,6.9-8.6,9.6c-0.4,0.6-1,1.9-1.3,2.9c-0.4,1.3-1,3.4-1.5,7.2c-0.4,2.2-0.8,4.9-0.9,6c-0.3,2.7-1.1,7-4.4,8.2
	c-0.2,0.1-0.4,0.1-0.5,0.2v0c-3.1,0.7-6.3-1.9-8.6-6.7c-0.5,0.4-1,0.7-1.6,0.9c3.1,7.5,7.9,10.9,12,10.9c3.1,0,5.6-1.6,6.4-6.3
	c0.4-2.3,0.7-4.9,1-7.5c0.1-1.2,0.7-8.1,1.8-10.6c1.4-2.8,4.3-5.5,8.7-10.1c2.7-2.8,4.2-5.2,5-7.1c2.6-4.7-0.6-16-1.2-18
	c0-0.1,0-0.1-0.1-0.1c-0.1,0-0.1,0-0.1,0.1c0,0,0,0,0,0c-1.1,1.9-3.2,3.6-5.1,5c1.1-2.9,0.8-5.2,0.4-7v0c0-0.1-0.1-0.2-0.1-0.3l0,0
	c-1.9-7.5-9.5-14.1-12.9-18c-4.5-5-2.9-8.2-1.3-10.2c0.3,0.5,0.6,0.9,1,1.4c6.1,8.3,17.5,21.4,23.4,33.9c1.5,3.2,2.7,6.3,3.3,9.2
	c2.4,12.9-6.6,26.1-20.1,22.4h0c-0.1,0-0.2,0-0.3-0.1c-0.4,1.2-0.7,3-1,5.5c2,0.9,4.2,1.4,6.4,1.5l0,0c0.2,0,0.3,0,0.5,0
	c11.1,0.1,19.7-8.2,18.1-25.7c0,0-0.7-7.3-4.4-14.9c-6-13.5-17-26.8-23.8-35.4c-2.2-2.7-3.4-5.1-4.1-7.1c-1.3-4-0.5-7.1,1.2-8.4
	c0.4-0.3,0.8-0.6,1.2-0.8c0.2-0.1,0.1-0.4,0-0.4c0,0-0.1,0-0.1,0C94,6.5,93.5,6.6,92.6,7.2L92.6,7.2z M84.4,30.7
	c-1.8,0-3.2,1.6-3.2,3.4c0.1,1.8,1.6,3.3,3.4,3.2c1,0,1.8-0.5,2.4-1.2l0.1-0.1c0.4,2.6-0.9,4.7-3.8,7.2c-3,2.5-9.9,5.8-14.9,9.8
	c-7,5.5-8.6,11.6-9,16.5c-0.2,2.2,0.1,5.1,0.7,7.4c0.7,3,1.8,5.3,1.8,5.3s0.1,0.1,0.1,0.3c-0.2,3.2,0.1,8.9,2,13.2
	c2.4,5.5,6.8,10,13.1,8.7c6.3-1.5,7-11.9,7.7-19.4c0.2-1.2,0.4-1.5,0.8-1.8c1-0.9,3.5-3.2,4.7-4.2c0.7-0.6,1.4-1.3,1.8-2.1
	c0.5-1,0.2-2.3,0.2-2.3l-0.7-5c-0.2,0.7-1,1.7-2.2,2.9c-1.3,1.3-4.6,4.2-4.9,4.5c-0.3,0.3-1.4,1.1-1.9,4.9
	c-1.2,10.4-3.2,15.2-6.9,16.9c-1,0.5-2,0.7-3.2,0.7c-6.7-0.1-8.4-8.2-8.4-12.7c0-0.3,0-0.5,0-0.8c1.5,2.1,3.8,4.2,6.6,3.7
	c4.5-0.7,3.1-8.3,2.4-10.1c-0.6-1.8-2.4-7.1-6.1-6.8c-2.7,0.2-3.9,3.3-4.5,6C62.1,76.4,61.8,74,62,72c0.4-4.6,2-10.4,8.6-16.1
	c4.8-4,10.1-6.9,13.1-9.3c1.9-1.5,3.1-3.2,3.8-4.8c-0.2,1.5-0.6,3.2-1.3,5.2C83.4,54.3,75,66.4,74.9,83.6c0,5.3,0.5,9.8,1.3,13.7
	c0.5-0.3,0.9-0.7,1.3-1.2c-0.6-2.8-0.9-5.9-0.9-9.2c0-17.1,8.3-29.2,11-36.5c1.4-3.9,1.5-6.7,1.5-9.4c0-3.4-0.8-7-1.5-8.3
	c-0.8-1.3-1.7-1.9-3.1-1.9H84.4z M64.6,82.7c0.5-1.6,1.4-3.1,3.1-4c2.7-1.3,3.7,1.9,3.7,1.9c-0.2,2.2-1.8,3.3-3.6,3.3
	C66.7,83.9,65.6,83.5,64.6,82.7L64.6,82.7z M99.7,55.7c-0.3,0.3-1.8,2-3.2,3.6c-1.3,1.4-2.5,2.8-2.8,3.1c-0.6,0.7-0.9,1.4-0.9,1.7
	l0.4,1.8c0.1-0.3,0.5-1,0.9-1.5c0.3-0.3,1.8-2,3.2-3.6c1.3-1.4,2.5-2.8,2.8-3.1c0.6-0.7,0.9-1.4,0.9-1.7l-0.4-1.9
	C100.5,54.6,100.1,55.3,99.7,55.7L99.7,55.7z M73.8,58.5c0,0-2.6,1.9-3.7,4.4c-0.6,1.5-0.6,3.2-0.2,4c0.4,0.8,1.2,1.6,2.4,0.6
	c0.8-0.6,1.1-1.5,1.3-2.3c0.1-0.5,0.1-0.7,0.1-1c0-0.3-0.1-0.5-0.4-0.5c-0.8,0.3-0.3,1.3-0.8,1.8c-0.4,0.3-1.5,0.1-1.7-0.9
	c-0.2-1.1,0.6-2.4,1.3-3.3c0.7-0.9,2-2.1,2-2.1s0.9-0.8,0.6-1.2c0,0,0,0-0.1,0C74.5,58,73.8,58.5,73.8,58.5L73.8,58.5z M94.1,78.4
	l4.2,2l2.3-5l-4.2-2L94.1,78.4z M86.1,83.7c1.8,4.2,4.5,7.8,7.6,10.5c0.3-2.2,0.7-3.7,1-4.9c-3.2-2.3-5.4-4.7-6.9-7.2L86.1,83.7z
	 M107.9,87.2l4.2,2l2.3-5l-4.2-2L107.9,87.2z M85,97.7l3.6,3l3.5-4.2l-3.6-3L85,97.7z M84.2,105.1l3.6,3l3.5-4.2l-3.6-3L84.2,105.1z
	 M101.1,102c-0.2,0.1-0.2,0.3-0.1,0.7c0.1,0.4,0.7,2,0.7,2c0.4,1.2,1.2,2.6,2.2,3.3c1.1,0.8,1.6,0.5,1.8,0.4
	c0.2-0.1,0.8-0.5,0.6-1.6c-0.3-1.2-0.4-1.5-0.6-1.9c-0.2-0.4-0.5-0.7-0.7-0.6c-0.1,0,0,0.4,0,0.6c0,0.4-0.2,0.7-0.5,0.9
	c-0.3,0.1-1.1,0.4-1.7-0.6c-0.5-0.9-0.9-2-1.1-2.4C101.6,102.4,101.4,102,101.1,102C101.2,102,101.1,102,101.1,102L101.1,102z"/>
<polygon id="Fill-5" class="st0" points="15,153.5 18.1,162.5 18.1,162.5 21,153.5 25.1,153.5 25.1,166.7 22.4,166.7 22.4,157.3 
	22.3,157.3 19.1,166.7 16.9,166.7 13.7,157.4 13.7,157.4 13.7,166.7 11,166.7 11,153.5 "/>
<polygon id="Fill-7" class="st0" points="37.3,153.5 37.3,155.9 30.5,155.9 30.5,158.7 36.7,158.7 36.7,161 30.5,161 30.5,164.2 
	37.4,164.2 37.4,166.7 27.7,166.7 27.7,153.5 "/>
<path id="Fill-9" class="st0" d="M45.8,164.2c0.4,0,0.9-0.1,1.3-0.2c0.4-0.1,0.8-0.4,1.1-0.7c0.3-0.3,0.6-0.7,0.8-1.2
	c0.2-0.5,0.3-1.1,0.3-1.8c0-0.7-0.1-1.3-0.2-1.8c-0.1-0.5-0.4-1-0.7-1.4c-0.3-0.4-0.7-0.7-1.2-0.9c-0.5-0.2-1.1-0.3-1.9-0.3h-2.2
	v8.3H45.8z M46,153.5c0.9,0,1.7,0.1,2.5,0.4c0.8,0.3,1.4,0.7,2,1.2c0.6,0.5,1,1.2,1.3,2c0.3,0.8,0.5,1.8,0.5,2.9
	c0,1-0.1,1.8-0.4,2.7c-0.3,0.8-0.7,1.5-1.2,2.1c-0.5,0.6-1.2,1.1-2,1.4c-0.8,0.3-1.7,0.5-2.8,0.5h-6v-13.2H46z"/>
<defs>
	<filter id="Adobe_OpacityMaskFilter" filterUnits="userSpaceOnUse" x="54.1" y="153.5" width="2.6" height="13.2">
		<feColorMatrix  type="matrix" values="1 0 0 0 0  0 1 0 0 0  0 0 1 0 0  0 0 0 1 0"/>
	</filter>
</defs>
<mask maskUnits="userSpaceOnUse" x="54.1" y="153.5" width="2.6" height="13.2" id="mask-2_1_">
	<g class="st2">
		<polygon id="path-1_1_" class="st3" points="11,167.5 172,167.5 172,14.5 11,14.5 		"/>
	</g>
</mask>
<polygon id="Fill-11" class="st4" points="54.1,166.7 56.7,166.7 56.7,153.5 54.1,153.5 "/>
<defs>
	<filter id="Adobe_OpacityMaskFilter_1_" filterUnits="userSpaceOnUse" x="57.6" y="153.5" width="13.2" height="13.2">
		<feColorMatrix  type="matrix" values="1 0 0 0 0  0 1 0 0 0  0 0 1 0 0  0 0 0 1 0"/>
	</filter>
</defs>
<mask maskUnits="userSpaceOnUse" x="57.6" y="153.5" width="13.2" height="13.2" id="mask-2_2_">
	<g class="st5">
		<polygon id="path-1_2_" class="st3" points="11,167.5 172,167.5 172,14.5 11,14.5 		"/>
	</g>
</mask>
<path id="Fill-13" class="st6" d="M65.9,161.6l-1.7-4.8h0l-1.8,4.8H65.9z M65.8,153.5l5,13.2h-3.1l-1-2.9h-5l-1.1,2.9h-3l5.1-13.2
	H65.8z"/>
<defs>
	<filter id="Adobe_OpacityMaskFilter_2_" filterUnits="userSpaceOnUse" x="77" y="153.5" width="2.6" height="13.2">
		<feColorMatrix  type="matrix" values="1 0 0 0 0  0 1 0 0 0  0 0 1 0 0  0 0 0 1 0"/>
	</filter>
</defs>
<mask maskUnits="userSpaceOnUse" x="77" y="153.5" width="2.6" height="13.2" id="mask-2_3_">
	<g class="st7">
		<polygon id="path-1_3_" class="st3" points="11,167.5 172,167.5 172,14.5 11,14.5 		"/>
	</g>
</mask>
<polygon id="Fill-14" class="st8" points="77,166.7 79.6,166.7 79.6,153.5 77,153.5 "/>
<defs>
	<filter id="Adobe_OpacityMaskFilter_3_" filterUnits="userSpaceOnUse" x="83.1" y="153.5" width="11.4" height="13.2">
		<feColorMatrix  type="matrix" values="1 0 0 0 0  0 1 0 0 0  0 0 1 0 0  0 0 0 1 0"/>
	</filter>
</defs>
<mask maskUnits="userSpaceOnUse" x="83.1" y="153.5" width="11.4" height="13.2" id="mask-2_4_">
	<g class="st9">
		<polygon id="path-1_4_" class="st3" points="11,167.5 172,167.5 172,14.5 11,14.5 		"/>
	</g>
</mask>
<polygon id="Fill-15" class="st10" points="86.1,153.5 91.8,162.3 91.8,162.3 91.8,153.5 94.6,153.5 94.6,166.7 91.6,166.7 
	86,157.8 85.9,157.8 85.9,166.7 83.1,166.7 83.1,153.5 "/>
<defs>
	<filter id="Adobe_OpacityMaskFilter_4_" filterUnits="userSpaceOnUse" x="96.3" y="153.5" width="11.4" height="14.1">
		<feColorMatrix  type="matrix" values="1 0 0 0 0  0 1 0 0 0  0 0 1 0 0  0 0 0 1 0"/>
	</filter>
</defs>
<mask maskUnits="userSpaceOnUse" x="96.3" y="153.5" width="11.4" height="14.1" id="mask-2_5_">
	<g class="st11">
		<polygon id="path-1_5_" class="st3" points="11,167.5 172,167.5 172,14.5 11,14.5 		"/>
	</g>
</mask>
<path id="Fill-16" class="st12" d="M99.5,163.9c0.2,0.3,0.4,0.6,0.7,0.8c0.3,0.2,0.6,0.3,1,0.4c0.4,0.1,0.7,0.1,1.1,0.1
	c0.3,0,0.6,0,0.9-0.1c0.3,0,0.6-0.1,0.9-0.3c0.3-0.1,0.5-0.3,0.7-0.5c0.2-0.2,0.3-0.5,0.3-0.8c0-0.4-0.1-0.7-0.4-0.9
	c-0.2-0.2-0.5-0.4-0.9-0.6c-0.4-0.2-0.8-0.3-1.3-0.4c-0.5-0.1-1-0.2-1.5-0.4c-0.5-0.1-1-0.3-1.5-0.5c-0.5-0.2-0.9-0.4-1.3-0.7
	c-0.4-0.3-0.7-0.7-0.9-1.1c-0.2-0.4-0.4-1-0.4-1.6c0-0.7,0.1-1.3,0.4-1.8c0.3-0.5,0.7-0.9,1.2-1.3c0.5-0.3,1-0.6,1.6-0.8
	c0.6-0.2,1.2-0.2,1.8-0.2c0.7,0,1.4,0.1,2,0.2c0.7,0.2,1.2,0.4,1.7,0.8c0.5,0.4,0.9,0.8,1.2,1.3c0.3,0.5,0.4,1.2,0.4,2h-2.9
	c0-0.4-0.1-0.7-0.3-1c-0.1-0.3-0.3-0.5-0.6-0.6c-0.2-0.2-0.5-0.3-0.8-0.3c-0.3-0.1-0.7-0.1-1-0.1c-0.2,0-0.5,0-0.7,0.1
	c-0.2,0.1-0.5,0.1-0.7,0.3c-0.2,0.1-0.4,0.3-0.5,0.5c-0.1,0.2-0.2,0.4-0.2,0.7c0,0.3,0.1,0.5,0.2,0.6c0.1,0.2,0.3,0.3,0.6,0.5
	c0.3,0.1,0.7,0.3,1.2,0.4c0.5,0.1,1.2,0.3,2.1,0.5c0.3,0.1,0.6,0.1,1.1,0.3c0.5,0.1,0.9,0.3,1.3,0.6c0.4,0.3,0.8,0.7,1.2,1.2
	c0.3,0.5,0.5,1.1,0.5,1.9c0,0.6-0.1,1.2-0.4,1.7c-0.2,0.5-0.6,1-1.1,1.4c-0.5,0.4-1.1,0.7-1.8,0.9c-0.7,0.2-1.5,0.3-2.4,0.3
	c-0.7,0-1.5-0.1-2.2-0.3c-0.7-0.2-1.3-0.5-1.9-0.9c-0.5-0.4-1-0.9-1.3-1.5c-0.3-0.6-0.5-1.3-0.5-2.1h2.9
	C99.2,163.2,99.3,163.6,99.5,163.9"/>
<defs>
	<filter id="Adobe_OpacityMaskFilter_5_" filterUnits="userSpaceOnUse" x="106.9" y="153.5" width="11.4" height="13.2">
		<feColorMatrix  type="matrix" values="1 0 0 0 0  0 1 0 0 0  0 0 1 0 0  0 0 0 1 0"/>
	</filter>
</defs>
<mask maskUnits="userSpaceOnUse" x="106.9" y="153.5" width="11.4" height="13.2" id="mask-2_6_">
	<g class="st13">
		<polygon id="path-1_6_" class="st3" points="11,167.5 172,167.5 172,14.5 11,14.5 		"/>
	</g>
</mask>
<polygon id="Fill-17" class="st14" points="106.9,155.9 106.9,153.5 118.3,153.5 118.3,155.9 114.1,155.9 114.1,166.7 111.1,166.7 
	111.1,155.9 "/>
<defs>
	<filter id="Adobe_OpacityMaskFilter_6_" filterUnits="userSpaceOnUse" x="120.1" y="153.5" width="2.6" height="13.2">
		<feColorMatrix  type="matrix" values="1 0 0 0 0  0 1 0 0 0  0 0 1 0 0  0 0 0 1 0"/>
	</filter>
</defs>
<mask maskUnits="userSpaceOnUse" x="120.1" y="153.5" width="2.6" height="13.2" id="mask-2_7_">
	<g class="st15">
		<polygon id="path-1_7_" class="st3" points="11,167.5 172,167.5 172,14.5 11,14.5 		"/>
	</g>
</mask>
<polygon id="Fill-18" class="st16" points="120.1,166.7 122.7,166.7 122.7,153.5 120.1,153.5 "/>
<defs>
	<filter id="Adobe_OpacityMaskFilter_7_" filterUnits="userSpaceOnUse" x="123.6" y="153.5" width="11.4" height="13.2">
		<feColorMatrix  type="matrix" values="1 0 0 0 0  0 1 0 0 0  0 0 1 0 0  0 0 0 1 0"/>
	</filter>
</defs>
<mask maskUnits="userSpaceOnUse" x="123.6" y="153.5" width="11.4" height="13.2" id="mask-2_8_">
	<g class="st17">
		<polygon id="path-1_8_" class="st3" points="11,167.5 172,167.5 172,14.5 11,14.5 		"/>
	</g>
</mask>
<polygon id="Fill-19" class="st18" points="123.6,155.9 123.6,153.5 135,153.5 135,155.9 130.9,155.9 130.9,166.7 127.8,166.7 
	127.8,155.9 "/>
<defs>
	<filter id="Adobe_OpacityMaskFilter_8_" filterUnits="userSpaceOnUse" x="136.8" y="153.5" width="11.4" height="14.1">
		<feColorMatrix  type="matrix" values="1 0 0 0 0  0 1 0 0 0  0 0 1 0 0  0 0 0 1 0"/>
	</filter>
</defs>
<mask maskUnits="userSpaceOnUse" x="136.8" y="153.5" width="11.4" height="14.1" id="mask-2_9_">
	<g class="st19">
		<polygon id="path-1_9_" class="st3" points="11,167.5 172,167.5 172,14.5 11,14.5 		"/>
	</g>
</mask>
<path id="Fill-20" class="st20" d="M146.7,166.2c-1,0.9-2.4,1.4-4.2,1.4c-1.8,0-3.2-0.4-4.2-1.3c-1-0.9-1.5-2.3-1.5-4.2v-8.6h2.9
	v8.6c0,0.4,0,0.7,0.1,1.1c0.1,0.4,0.2,0.7,0.4,1c0.2,0.3,0.5,0.5,0.8,0.7c0.4,0.2,0.8,0.3,1.4,0.3c1.1,0,1.8-0.2,2.2-0.7
	c0.4-0.5,0.6-1.2,0.6-2.3v-8.6h2.9v8.6C148.2,163.9,147.7,165.3,146.7,166.2"/>
<defs>
	<filter id="Adobe_OpacityMaskFilter_9_" filterUnits="userSpaceOnUse" x="149.1" y="153.5" width="11.4" height="13.2">
		<feColorMatrix  type="matrix" values="1 0 0 0 0  0 1 0 0 0  0 0 1 0 0  0 0 0 1 0"/>
	</filter>
</defs>
<mask maskUnits="userSpaceOnUse" x="149.1" y="153.5" width="11.4" height="13.2" id="mask-2_10_">
	<g class="st21">
		<polygon id="path-1_10_" class="st3" points="11,167.5 172,167.5 172,14.5 11,14.5 		"/>
	</g>
</mask>
<polygon id="Fill-21" class="st22" points="149.1,155.9 149.1,153.5 160.6,153.5 160.6,155.9 156.4,155.9 156.4,166.7 153.3,166.7 
	153.3,155.9 "/>
<defs>
	<filter id="Adobe_OpacityMaskFilter_10_" filterUnits="userSpaceOnUse" x="162.3" y="153.5" width="9.7" height="13.2">
		<feColorMatrix  type="matrix" values="1 0 0 0 0  0 1 0 0 0  0 0 1 0 0  0 0 0 1 0"/>
	</filter>
</defs>
<mask maskUnits="userSpaceOnUse" x="162.3" y="153.5" width="9.7" height="13.2" id="mask-2_11_">
	<g class="st23">
		<polygon id="path-1_11_" class="st3" points="11,167.5 172,167.5 172,14.5 11,14.5 		"/>
	</g>
</mask>
<polygon id="Fill-22" class="st24" points="171.9,153.5 171.9,155.9 165.1,155.9 165.1,158.7 171.3,158.7 171.3,161 165.1,161 
	165.1,164.2 172,164.2 172,166.7 162.3,166.7 162.3,153.5 "/>
</svg>
